<svg width="1080" height="1350" viewBox="0 0 1080 1350" fill="none" xmlns="http://www.w3.org/2000/svg">
  <defs>
    <linearGradient id="bg" x1="146" y1="58" x2="910" y2="1198" gradientUnits="userSpaceOnUse">
      <stop stop-color="#101C29"/>
      <stop offset="0.56" stop-color="#0B141D"/>
      <stop offset="1" stop-color="#091119"/>
    </linearGradient>
    <linearGradient id="panel" x1="0" y1="0" x2="0" y2="1">
      <stop stop-color="#162432" stop-opacity="0.96"/>
      <stop offset="1" stop-color="#0E1822" stop-opacity="0.98"/>
    </linearGradient>
    <linearGradient id="accent" x1="178" y1="168" x2="884" y2="1068" gradientUnits="userSpaceOnUse">
      <stop stop-color="#F0BA6B"/>
      <stop offset="1" stop-color="#6F9CC9"/>
    </linearGradient>
    <radialGradient id="glowTop" cx="0" cy="0" r="1" gradientUnits="userSpaceOnUse" gradientTransform="translate(308 238) rotate(38.6) scale(314 268)">
      <stop stop-color="#F0BA6B" stop-opacity="0.24"/>
      <stop offset="1" stop-color="#F0BA6B" stop-opacity="0"/>
    </radialGradient>
    <radialGradient id="glowBottom" cx="0" cy="0" r="1" gradientUnits="userSpaceOnUse" gradientTransform="translate(780 964) rotate(142.2) scale(432 352)">
      <stop stop-color="#5C93D8" stop-opacity="0.24"/>
      <stop offset="1" stop-color="#5C93D8" stop-opacity="0"/>
    </radialGradient>
  </defs>

  <rect width="1080" height="1350" rx="36" fill="url(#bg)"/>
  <rect width="1080" height="1350" rx="36" fill="url(#glowTop)"/>
  <rect width="1080" height="1350" rx="36" fill="url(#glowBottom)"/>

  <g opacity="0.22">
    <path d="M66 146H1014" stroke="#B7C8DA" stroke-opacity="0.14"/>
    <path d="M66 266H1014" stroke="#B7C8DA" stroke-opacity="0.14"/>
    <path d="M66 386H1014" stroke="#B7C8DA" stroke-opacity="0.14"/>
    <path d="M66 506H1014" stroke="#B7C8DA" stroke-opacity="0.14"/>
    <path d="M66 626H1014" stroke="#B7C8DA" stroke-opacity="0.14"/>
    <path d="M66 746H1014" stroke="#B7C8DA" stroke-opacity="0.14"/>
    <path d="M66 866H1014" stroke="#B7C8DA" stroke-opacity="0.14"/>
    <path d="M66 986H1014" stroke="#B7C8DA" stroke-opacity="0.14"/>
    <path d="M66 1106H1014" stroke="#B7C8DA" stroke-opacity="0.14"/>
    <path d="M66 1226H1014" stroke="#B7C8DA" stroke-opacity="0.14"/>
    <path d="M156 86V1264" stroke="#B7C8DA" stroke-opacity="0.12"/>
    <path d="M348 86V1264" stroke="#B7C8DA" stroke-opacity="0.12"/>
    <path d="M540 86V1264" stroke="#B7C8DA" stroke-opacity="0.12"/>
    <path d="M732 86V1264" stroke="#B7C8DA" stroke-opacity="0.12"/>
    <path d="M924 86V1264" stroke="#B7C8DA" stroke-opacity="0.12"/>
  </g>

  <rect x="88" y="108" width="432" height="48" rx="24" fill="#12202D" stroke="#A7BED6" stroke-opacity="0.1"/>
  <text x="124" y="139" fill="#F0BA6B" font-family="'Segoe UI', sans-serif" font-size="20" font-weight="700">Desktop ERP for autoservice</text>

  <rect x="88" y="198" width="904" height="186" rx="32" fill="url(#panel)" stroke="#A7BED6" stroke-opacity="0.18"/>
  <text x="132" y="258" fill="#F2F6FB" font-family="'Segoe UI', sans-serif" font-size="34" font-weight="700">Veyronix Operations</text>
  <text x="132" y="304" fill="#A2B3C6" font-family="'Segoe UI', sans-serif" font-size="22">Linked workflow across clients, vehicles, orders, team load and reports.</text>
  <path d="M132 338H346" stroke="url(#accent)" stroke-width="4" stroke-linecap="round"/>

  <rect x="88" y="426" width="432" height="220" rx="28" fill="#0E1823" stroke="#A7BED6" stroke-opacity="0.14"/>
  <rect x="560" y="426" width="432" height="220" rx="28" fill="#101C28" stroke="#A7BED6" stroke-opacity="0.14"/>
  <text x="128" y="482" fill="#A2B3C6" font-family="'Segoe UI', sans-serif" font-size="22">Attention</text>
  <text x="128" y="568" fill="#F2F6FB" font-family="'Segoe UI', sans-serif" font-size="90" font-weight="700">07</text>
  <text x="128" y="612" fill="#D3DEE8" font-family="'Segoe UI', sans-serif" font-size="22">orders require action</text>
  <text x="600" y="482" fill="#A2B3C6" font-family="'Segoe UI', sans-serif" font-size="22">Team Load</text>
  <text x="600" y="568" fill="#F2F6FB" font-family="'Segoe UI', sans-serif" font-size="90" font-weight="700">84%</text>
  <rect x="600" y="590" width="252" height="16" rx="8" fill="#162634"/>
  <rect x="600" y="590" width="210" height="16" rx="8" fill="url(#accent)"/>

  <rect x="88" y="690" width="904" height="250" rx="32" fill="#0E1823" stroke="#A7BED6" stroke-opacity="0.14"/>
  <text x="132" y="752" fill="#F2F6FB" font-family="'Segoe UI', sans-serif" font-size="34" font-weight="700">Linked Workflow</text>
  <text x="132" y="798" fill="#A2B3C6" font-family="'Segoe UI', sans-serif" font-size="22">Client and vehicle context move with the order from booking to reporting.</text>
  <rect x="132" y="842" width="178" height="48" rx="24" fill="#13202C" stroke="#A7BED6" stroke-opacity="0.14"/>
  <rect x="354" y="842" width="198" height="48" rx="24" fill="#13202C" stroke="#A7BED6" stroke-opacity="0.14"/>
  <rect x="596" y="842" width="164" height="48" rx="24" fill="#13202C" stroke="#A7BED6" stroke-opacity="0.14"/>
  <rect x="804" y="842" width="156" height="48" rx="24" fill="#13202C" stroke="#A7BED6" stroke-opacity="0.14"/>
  <text x="182" y="873" fill="#DCE6EE" font-family="'Segoe UI', sans-serif" font-size="22">Client</text>
  <text x="410" y="873" fill="#DCE6EE" font-family="'Segoe UI', sans-serif" font-size="22">Vehicle</text>
  <text x="646" y="873" fill="#DCE6EE" font-family="'Segoe UI', sans-serif" font-size="22">Order</text>
  <text x="838" y="873" fill="#DCE6EE" font-family="'Segoe UI', sans-serif" font-size="22">Reports</text>

  <rect x="88" y="980" width="430" height="230" rx="28" fill="url(#panel)" stroke="#A7BED6" stroke-opacity="0.18"/>
  <rect x="560" y="980" width="432" height="230" rx="28" fill="#0E1822" stroke="#A7BED6" stroke-opacity="0.16"/>
  <text x="128" y="1038" fill="#F2F6FB" font-family="'Segoe UI', sans-serif" font-size="30" font-weight="700">Service Schedule</text>
  <rect x="128" y="1082" width="42" height="78" rx="20" fill="#142230"/>
  <rect x="190" y="1054" width="42" height="106" rx="20" fill="url(#accent)"/>
  <rect x="252" y="1096" width="42" height="64" rx="20" fill="#142230"/>
  <rect x="314" y="1032" width="42" height="128" rx="20" fill="#162C41"/>
  <rect x="376" y="1074" width="42" height="86" rx="20" fill="#142230"/>
  <text x="600" y="1038" fill="#F2F6FB" font-family="'Segoe UI', sans-serif" font-size="30" font-weight="700">Reports</text>
  <text x="600" y="1084" fill="#A2B3C6" font-family="'Segoe UI', sans-serif" font-size="22">margin</text>
  <text x="600" y="1166" fill="#F2F6FB" font-family="'Segoe UI', sans-serif" font-size="72" font-weight="700">+12%</text>
</svg>
